# xmcd CD database file
#
# Track frame offsets:
#	150
#	23162
#	43627
#	64260
#	81935
#	103380
#	121207
#	144330
#	166275
#	184647
#	206507
#	230187
#	244237
#	280575
#
# Disc length: 4440 seconds
#
# Revision: 0
# Processed by: cddbd v1.5PL3 Copyright (c) Steve Scherf et al.
# Submitted via: CDex 1.50
#
DISCID=c611560e
DTITLE=MESSAGE - 上戸彩
DYEAR=2004
DGENRE=JPop
TTITLE0=愛のために。
TTITLE1=贈る言葉
TTITLE2=MESSAGE〜album version〜
TTITLE3=青空
TTITLE4=感傷
TTITLE5=MERMAID
TTITLE6=太陽と月
TTITLE7=PERSONAL
TTITLE8=微熱
TTITLE9=キセキ
TTITLE10=Silence〜COCONUTS GROOVE version〜
TTITLE11=Steppin’ Out〜complete version〜
TTITLE12=愛のために。〜Lover’s Splash Mix〜
TTITLE13=データ
EXTD=YEAR: 2004
EXTT0=
EXTT1=
EXTT2=
EXTT3=
EXTT4=
EXTT5=
EXTT6=
EXTT7=
EXTT8=
EXTT9=
EXTT10=
EXTT11=
EXTT12=
EXTT13=
PLAYORDER=
